<?xml version="1.0" standalone="no"?><!DOCTYPE svg PUBLIC "-//W3C//DTD SVG 1.1//EN" "http://www.w3.org/Graphics/SVG/1.1/DTD/svg11.dtd"><svg t="1669792998504" class="icon" viewBox="0 0 1024 1024" version="1.1" xmlns="http://www.w3.org/2000/svg" p-id="7326" xmlns:xlink="http://www.w3.org/1999/xlink" width="128" height="128"><path d="M771.52 721.28l-109.44-21.44a8.32 8.32 0 0 1-4.8-13.76l73.28-84.16a50.24 50.24 0 0 0-76.16-66.24l-73.28 84.16a8.32 8.32 0 0 1-14.4-2.88L530.56 512a50.24 50.24 0 0 0-96 32l36.48 105.6a8.32 8.32 0 0 1-9.6 10.88L352 640a50.56 50.56 0 0 0-19.2 98.88l109.44 21.12a8.32 8.32 0 0 1 4.8 13.76l-72.64 84.16a50.24 50.24 0 1 0 76.16 66.24l73.28-84.16a8.32 8.32 0 0 1 14.4 2.88l36.48 105.6a50.24 50.24 0 1 0 96-32l-36.16-105.28a8.32 8.32 0 0 1 9.6-10.88l109.44 21.12a50.56 50.56 0 0 0 17.92-100.16z m-440-235.2L307.52 416a5.76 5.76 0 0 1 6.4-7.36l72.96 14.08a33.6 33.6 0 0 0 12.8-65.92l-73.28-14.4a5.76 5.76 0 0 1-3.2-9.28l48.64-56A32 32 0 0 0 320 232.96L272.64 288a5.76 5.76 0 0 1-9.6 0l-24.32-70.4a32 32 0 0 0-64 21.76l24.32 70.4a5.76 5.76 0 0 1-6.4 7.36l-72.32-14.72a33.6 33.6 0 0 0-12.8 65.92l72.96 15.68a5.76 5.76 0 0 1 3.2 9.28L134.72 448a32 32 0 1 0 50.88 43.84l48.64-56a5.76 5.76 0 0 1 9.6 1.92l24.32 70.4a32 32 0 1 0 64-21.76z m578.56-242.24l-90.88-17.6a7.04 7.04 0 0 1-3.84-11.52l60.8-69.76a41.92 41.92 0 0 0-64-54.72L752.32 160a7.04 7.04 0 0 1-11.84-2.24L710.4 70.4a41.92 41.92 0 0 0-79.36 25.6l30.08 87.36a7.04 7.04 0 0 1-8 8.96l-90.88-17.6a41.92 41.92 0 0 0-16 81.92l90.88 17.6A7.04 7.04 0 0 1 640 288l-60.8 69.76a41.92 41.92 0 1 0 64 54.72l60.8-70.4a7.04 7.04 0 0 1 11.84 2.24l30.08 87.36a41.92 41.92 0 1 0 79.04-27.2l-30.08-87.36a7.04 7.04 0 0 1 8-8.96l90.88 17.6a41.92 41.92 0 0 0 16.32-81.92z" fill="#515151" p-id="7327"></path></svg>